<?xml version="1.0" standalone="no"?>
<!DOCTYPE svg PUBLIC "-//W3C//DTD SVG 20010904//EN"
 "http://www.w3.org/TR/2001/REC-SVG-20010904/DTD/svg10.dtd">
<svg version="1.0" xmlns="http://www.w3.org/2000/svg"
 width="512.000000pt" height="512.000000pt" viewBox="0 0 512.000000 512.000000"
 preserveAspectRatio="xMidYMid meet">

<g transform="translate(0.000000,512.000000) scale(0.100000,-0.100000)"
fill="#049583" stroke="none">
<path d="M0 2560 l0 -2560 2560 0 2560 0 0 2560 0 2560 -2560 0 -2560 0 0
-2560z m2686 1769 c186 -31 396 -108 554 -204 66 -40 79 -64 56 -100 -24 -36
-55 -31 -144 20 -158 91 -367 160 -567 186 -124 16 -374 6 -492 -20 -598 -131
-1053 -586 -1184 -1184 -26 -120 -36 -370 -20 -500 64 -508 382 -952 841
-1177 l103 -50 569 0 570 0 91 44 c158 76 271 158 407 295 75 75 150 162 187
216 200 297 297 660 264 995 -37 373 -181 678 -443 944 -65 66 -118 123 -118
128 0 18 21 48 41 58 16 9 27 7 53 -10 49 -30 212 -204 278 -296 385 -540 410
-1263 62 -1822 l-46 -72 72 -80 c40 -44 75 -80 79 -80 3 1 56 48 116 105 l110
104 -66 68 c-36 37 -69 77 -73 87 -10 29 19 66 53 66 24 0 48 -19 135 -112 58
-62 119 -137 135 -168 41 -76 55 -163 41 -242 -11 -60 -174 -460 -228 -561
-53 -99 -168 -178 -289 -197 -35 -6 -614 -10 -1448 -10 -1100 0 -1395 3 -1415
13 l-25 13 -3 239 c-3 295 -15 275 157 275 133 0 161 -11 161 -60 0 -46 -31
-60 -127 -60 l-83 0 0 -150 0 -150 155 0 155 0 0 194 c0 168 2 195 16 207 11
9 52 16 107 19 l91 5 -61 37 c-133 83 -308 244 -414 383 -302 396 -406 907
-284 1395 126 500 497 925 974 1115 296 118 580 147 897 94z m-183 -189 c127
-12 204 -33 302 -80 172 -83 246 -212 200 -349 -40 -122 -191 -301 -333 -395
-182 -120 -334 -125 -517 -16 -75 45 -215 177 -270 254 -129 184 -134 298 -17
416 106 105 263 159 522 178 8 1 59 -3 113 -8z m-908 -514 c99 -46 229 -216
294 -386 62 -159 68 -310 16 -415 -41 -84 -176 -215 -222 -215 -20 0 -53 38
-53 60 0 11 15 32 33 47 73 63 121 119 145 171 21 48 24 64 19 127 -10 135
-106 352 -193 436 l-31 30 -45 -53 c-67 -80 -105 -140 -154 -243 -70 -146 -96
-261 -101 -440 -2 -90 0 -156 6 -165 9 -12 20 -11 88 9 43 13 90 26 104 28 51
9 79 -56 40 -91 -29 -26 -166 -67 -247 -73 -192 -15 -299 129 -298 402 2 346
196 697 432 781 55 20 111 16 167 -10z m1829 -10 c151 -75 291 -281 357 -528
19 -67 23 -111 23 -228 1 -128 -2 -153 -23 -214 -31 -89 -103 -168 -171 -186
-150 -40 -440 71 -608 234 -106 102 -149 206 -139 332 21 238 208 552 364 610
52 19 134 11 197 -20z m-935 -763 c71 -53 93 -150 50 -219 -78 -128 -280 -82
-296 67 -13 129 145 227 246 152z m-524 -478 c82 -22 150 -61 199 -116 150
-167 215 -575 119 -751 -33 -60 -81 -93 -166 -114 -259 -64 -687 188 -839 493
-67 134 -65 260 4 339 55 62 181 120 328 149 93 19 283 18 355 0z m1308 -19
c178 -53 265 -117 294 -215 60 -207 -177 -530 -500 -681 -166 -77 -330 -96
-435 -50 -110 48 -152 138 -152 327 0 287 106 526 266 604 85 41 138 49 294
45 120 -3 160 -8 233 -30z"/>
<path d="M4087 1637 l-109 -102 37 -35 c20 -19 55 -59 77 -88 l41 -53 24 23
c64 59 99 193 74 283 -23 86 -25 85 -144 -28z"/>
<path d="M3614 1615 c-70 -80 -211 -201 -313 -267 l-74 -48 397 0 c337 0 396
2 396 14 0 13 -321 356 -340 364 -4 2 -34 -27 -66 -63z"/>
<path d="M4065 1200 c-11 -5 -32 -9 -47 -9 l-28 -1 0 -107 0 -108 20 25 c18
23 90 186 90 203 0 9 -9 8 -35 -3z"/>
<path d="M1470 1030 l0 -150 155 0 155 0 0 150 0 150 -155 0 -155 0 0 -150z"/>
<path d="M1890 1030 l0 -150 155 0 155 0 0 150 0 150 -155 0 -155 0 0 -150z"/>
<path d="M2310 1030 l0 -150 155 0 155 0 0 150 0 150 -155 0 -155 0 0 -150z"/>
<path d="M2730 1030 l0 -150 155 0 155 0 0 150 0 150 -155 0 -155 0 0 -150z"/>
<path d="M3150 1030 l0 -150 155 0 155 0 0 150 0 150 -155 0 -155 0 0 -150z"/>
<path d="M3570 1030 l0 -150 129 0 c71 0 141 4 155 10 l26 10 0 140 0 140
-155 0 -155 0 0 -150z"/>
<path d="M2220 4016 c-124 -27 -237 -80 -284 -137 -14 -17 -26 -34 -26 -39 0
-5 27 2 61 16 250 102 578 103 850 4 90 -33 94 -24 18 44 -46 42 -115 76 -205
101 -81 23 -328 29 -414 11z"/>
<path d="M2188 3800 c-100 -21 -142 -34 -216 -66 l-52 -23 32 -53 c43 -70 149
-180 223 -234 90 -64 149 -87 226 -88 56 -1 75 4 140 36 40 20 106 64 145 97
88 73 209 230 192 246 -15 16 -210 77 -285 90 -116 20 -296 18 -405 -5z"/>
<path d="M1470 3531 c-101 -31 -218 -162 -283 -317 -61 -144 -72 -200 -72
-354 0 -131 2 -150 24 -197 41 -93 47 -86 48 60 2 279 96 547 265 757 27 33
48 60 46 59 -2 0 -14 -4 -28 -8z"/>
<path d="M3359 3469 c172 -213 269 -505 259 -781 -3 -105 4 -112 41 -39 91
180 20 531 -151 749 -52 67 -121 119 -169 129 l-31 6 51 -64z"/>
<path d="M3146 3423 c-56 -71 -130 -216 -150 -299 -9 -34 -16 -95 -16 -135 0
-63 4 -81 29 -125 36 -62 121 -142 204 -190 74 -43 192 -91 246 -100 l39 -6 7
83 c18 218 -57 493 -187 684 -49 71 -109 145 -119 145 -4 0 -28 -26 -53 -57z"/>
<path d="M2370 2750 c-25 -25 -25 -32 -2 -60 25 -31 69 -21 78 17 5 20 2 31
-16 45 -28 23 -35 23 -60 -2z"/>
<path d="M1639 2265 c-73 -14 -167 -44 -198 -64 -21 -14 85 -168 184 -266 92
-91 186 -157 307 -215 88 -42 265 -97 276 -86 3 4 6 58 5 119 -4 254 -99 452
-242 502 -64 23 -237 28 -332 10z"/>
<path d="M1340 2079 c0 -199 269 -470 554 -558 76 -23 190 -28 231 -9 24 11
21 13 -55 35 -282 81 -510 246 -679 492 -51 74 -51 74 -51 40z"/>
<path d="M2875 2267 c-146 -38 -228 -150 -269 -367 -17 -89 -22 -255 -7 -264
15 -10 160 32 251 72 200 89 384 251 498 439 l31 51 -52 21 c-29 11 -79 28
-112 36 -81 22 -276 28 -340 12z"/>
<path d="M3410 2034 c-100 -151 -272 -304 -443 -395 -90 -47 -257 -108 -300
-110 -17 0 -15 -4 13 -16 56 -25 186 -13 285 26 258 100 507 366 493 527 l-3
36 -45 -68z"/>
</g>
</svg>
